<?xml version="1.0" standalone="no"?>
<!DOCTYPE svg PUBLIC "-//W3C//DTD SVG 20010904//EN"
 "http://www.w3.org/TR/2001/REC-SVG-20010904/DTD/svg10.dtd">
<svg version="1.0" xmlns="http://www.w3.org/2000/svg"
 width="980.000000pt" height="980.000000pt" viewBox="0 0 980.000000 980.000000"
 preserveAspectRatio="xMidYMid meet">

<g transform="translate(0.000000,980.000000) scale(0.100000,-0.100000)"
fill="#000000" stroke="none">
<path d="M0 4900 l0 -4900 4900 0 4900 0 0 4900 0 4900 -4900 0 -4900 0 0
-4900z m6950 2830 c11 -11 20 -29 20 -40 0 -25 -34 -60 -57 -60 -14 0 -72
-135 -271 -636 -140 -349 -252 -637 -250 -639 1 -1 201 261 443 583 416 552
440 587 437 622 -4 45 17 70 58 70 28 0 60 -30 60 -56 0 -24 -38 -58 -65 -59
-25 0 -58 -39 -299 -360 -149 -198 -356 -472 -459 -609 -103 -137 -186 -250
-185 -252 2 -1 251 123 553 276 519 263 550 280 558 310 15 60 98 64 113 5 13
-53 -56 -101 -93 -64 -8 8 -156 -62 -560 -266 -301 -153 -552 -281 -557 -286
-15 -14 -94 1 926 -179 l168 -30 20 20 c25 25 55 25 80 0 55 -55 -24 -135 -82
-83 -10 9 -18 22 -18 30 0 7 -3 13 -6 13 -4 0 -223 39 -488 86 -579 103 -598
106 -602 101 -2 -2 180 -147 403 -323 835 -654 769 -605 798 -594 22 8 30 6
51 -15 31 -31 30 -50 -1 -81 -40 -40 -95 -13 -95 46 0 25 -127 128 -1105 893
-55 43 -75 53 -91 47 -13 -5 -33 -2 -52 7 -30 14 -38 13 -202 -42 -151 -50
-172 -60 -181 -83 -13 -33 -26 -41 -64 -43 -26 0 -48 -22 -165 -156 -122 -142
-134 -158 -131 -190 3 -41 -13 -63 -48 -63 -23 -1 -34 -15 -92 -123 -36 -67
-195 -359 -353 -650 -248 -458 -285 -530 -275 -548 15 -28 4 -66 -24 -80 -12
-6 -23 -13 -24 -14 -4 -3 -153 -861 -153 -880 0 -9 7 -23 15 -31 8 -9 15 -29
15 -45 0 -23 -7 -34 -30 -47 -33 -19 -21 23 -138 -497 l-59 -260 20 -26 c24
-33 20 -56 -15 -82 -24 -18 -30 -19 -55 -7 -15 7 -34 12 -42 11 -7 -1 -142
-54 -300 -116 -213 -85 -287 -118 -290 -132 -11 -56 -76 -71 -109 -25 l-20 27
-439 51 c-429 51 -438 51 -456 33 -44 -46 -124 0 -99 56 13 28 8 35 -183 327
-49 75 -111 171 -138 213 -38 60 -52 75 -72 75 -29 0 -65 32 -65 58 0 28 29
62 53 62 18 0 29 13 51 56 19 40 24 60 17 67 -6 6 -11 26 -11 44 0 36 20 53
67 54 24 0 52 29 183 180 144 166 155 182 155 219 0 40 23 69 55 70 25 0 60
-29 60 -50 0 -30 36 -44 62 -25 13 8 30 15 40 15 24 0 58 -35 58 -60 0 -26
-34 -60 -62 -60 -27 0 -58 27 -58 51 0 22 -44 36 -63 21 -6 -6 -26 -12 -44
-14 -27 -3 -54 -29 -188 -182 -142 -162 -156 -181 -150 -207 5 -22 1 -34 -19
-54 -14 -14 -32 -25 -40 -25 -9 0 -27 -23 -42 -51 -22 -44 -24 -55 -14 -75 7
-13 10 -36 7 -54 -6 -28 13 -62 182 -323 137 -211 194 -291 206 -289 21 4 65
-24 65 -42 0 -17 -16 -14 481 -71 l407 -47 21 21 c24 24 48 27 76 7 18 -12 52
-1 321 106 289 114 302 121 308 148 4 20 13 31 30 36 14 3 27 15 30 27 8 36
117 515 141 626 19 87 21 106 10 118 -24 23 -27 53 -11 78 9 14 23 25 31 25
18 0 16 -9 75 335 28 165 62 359 75 430 22 127 22 130 4 154 -35 44 -16 95 39
103 20 2 79 105 373 643 283 519 348 645 343 665 -4 14 -6 34 -6 45 1 28 39
56 66 49 19 -4 44 20 160 152 123 141 136 160 131 185 -5 22 -1 34 19 54 29
29 43 31 74 9 21 -14 33 -12 198 43 151 50 176 61 181 81 3 13 20 30 40 40 33
17 41 34 296 674 228 569 261 659 250 674 -44 60 35 126 87 74z m-3063 -6886
c38 -18 58 -44 68 -86 6 -25 5 -28 -19 -28 -16 0 -26 6 -26 14 0 8 -10 27 -23
41 -59 69 -237 23 -212 -55 10 -31 42 -47 130 -64 44 -8 92 -19 107 -25 85
-32 75 -167 -15 -207 -117 -53 -269 3 -279 101 -2 24 1 31 17 33 16 2 23 -5
30 -30 6 -19 24 -42 44 -55 74 -50 202 -17 209 54 5 52 -12 61 -180 93 -76 15
-108 45 -108 102 1 55 19 86 61 109 44 24 148 25 196 3z m1563 -20 c0 -21 -4
-25 -22 -22 -15 2 -24 11 -26 26 -3 18 1 22 22 22 21 0 26 -5 26 -26z m-1180
-92 c36 -18 84 -78 74 -93 -11 -18 -40 -8 -56 20 -18 33 -81 58 -120 48 -70
-18 -109 -90 -88 -165 21 -80 125 -110 189 -56 17 14 31 32 31 40 0 8 10 14
26 14 22 0 24 -3 19 -22 -21 -69 -72 -102 -158 -102 -65 1 -96 18 -135 75 -20
29 -23 44 -20 99 4 74 22 106 78 139 44 26 113 27 160 3z m364 -2 c60 -30 80
-63 84 -140 3 -55 0 -70 -20 -99 -35 -52 -82 -76 -150 -76 -64 0 -97 19 -135
75 -44 63 -24 186 36 229 50 36 126 40 185 11z m334 -7 c3 -21 -1 -23 -41 -23
-38 0 -49 -5 -71 -31 -25 -29 -26 -37 -26 -140 0 -102 -1 -109 -20 -109 -19 0
-20 7 -20 160 0 153 1 160 20 160 14 0 20 -7 20 -21 0 -20 1 -20 31 6 41 34
102 33 107 -2z m292 2 c103 -53 103 -231 0 -286 -51 -28 -128 -25 -174 6 l-36
24 0 -79 c0 -73 -2 -80 -20 -80 -18 0 -19 9 -22 193 -2 105 -2 202 0 215 4 30
42 31 42 1 0 -21 1 -21 27 -4 56 37 123 41 183 10z m829 19 c38 -8 81 -49 81
-79 0 -31 -25 -27 -53 8 -41 51 -167 44 -175 -9 -4 -31 15 -41 113 -58 103
-18 129 -36 129 -91 0 -89 -139 -134 -244 -80 -46 24 -75 95 -39 95 6 0 25
-16 43 -35 31 -32 38 -35 92 -35 65 0 104 19 104 49 0 28 -22 41 -92 52 -119
18 -158 42 -158 95 0 29 44 81 73 87 36 7 92 7 126 1z m-639 -165 l0 -160 -22
3 c-23 3 -23 6 -26 161 l-3 157 26 0 25 0 0 -161z m130 50 c0 -144 12 -169 83
-169 44 0 92 22 107 49 5 11 10 67 10 125 l0 106 25 0 26 0 -3 -157 c-3 -150
-4 -158 -23 -158 -13 0 -21 8 -23 22 l-3 22 -36 -25 c-63 -43 -167 -30 -194
25 -13 27 -26 230 -15 256 3 8 15 15 26 15 19 0 20 -6 20 -111z"/>
<path d="M4503 696 c-39 -18 -73 -69 -73 -111 0 -16 8 -46 18 -65 45 -91 196
-78 222 21 29 108 -69 198 -167 155z"/>
<path d="M5102 684 c-97 -68 -48 -224 70 -224 42 0 96 33 108 66 24 63 2 141
-47 163 -35 16 -105 13 -131 -5z"/>
</g>
</svg>
