<?xml version="1.0" standalone="no"?>
<!DOCTYPE svg PUBLIC "-//W3C//DTD SVG 20010904//EN"
 "http://www.w3.org/TR/2001/REC-SVG-20010904/DTD/svg10.dtd">
<svg version="1.0" xmlns="http://www.w3.org/2000/svg"
 width="980.000000pt" height="980.000000pt" viewBox="0 0 980.000000 980.000000"
 preserveAspectRatio="xMidYMid meet">

<g transform="translate(0.000000,980.000000) scale(0.100000,-0.100000)"
fill="#000000" stroke="none">
<path d="M0 4900 l0 -4900 4900 0 4900 0 0 4900 0 4900 -4900 0 -4900 0 0
-4900z m4714 1854 c20 -20 21 -58 1 -78 -20 -20 -20 -18 24 -217 109 -480 211
-938 211 -942 0 -3 11 -8 25 -11 27 -7 41 -42 32 -78 -5 -19 152 -251 458
-675 10 -15 26 -23 44 -23 15 0 36 -9 46 -20 11 -12 26 -18 39 -15 12 2 179
23 371 46 l350 42 23 28 c26 32 65 38 91 15 14 -12 48 -2 261 73 135 48 378
133 540 190 277 97 296 105 310 134 29 58 102 52 108 -9 5 -53 -49 -83 -96
-53 -15 9 -108 -20 -492 -156 -261 -92 -504 -177 -539 -189 -52 -17 -66 -26
-73 -49 -17 -49 -64 -61 -99 -26 l-21 21 -375 -45 -374 -46 -28 -30 c-32 -34
-39 -36 -73 -21 -20 10 -71 -16 -418 -216 -217 -124 -455 -260 -527 -302 -121
-68 -133 -78 -133 -103 0 -30 -23 -49 -59 -49 -14 0 -30 -15 -47 -42 -15 -24
-97 -153 -184 -288 -333 -522 -313 -487 -301 -509 15 -27 -2 -69 -31 -80 -44
-16 -81 9 -80 55 0 32 21 54 55 58 29 3 10 -25 361 524 161 253 185 295 176
313 -6 11 -9 28 -5 38 4 14 -89 96 -441 387 -394 327 -449 369 -476 366 -38
-3 -78 22 -78 48 0 16 -62 40 -447 165 -247 81 -476 156 -510 167 -57 20 -64
20 -94 6 -50 -25 -89 -1 -89 53 0 29 13 43 49 52 25 6 71 -30 71 -57 0 -8 12
-17 28 -21 15 -3 245 -77 512 -165 430 -141 486 -158 500 -145 26 24 67 19 86
-10 9 -14 14 -34 11 -44 -4 -15 20 -40 107 -112 61 -50 261 -216 444 -368 299
-247 338 -276 370 -277 21 0 44 -4 52 -7 15 -7 71 24 826 457 234 135 242 140
248 174 5 33 -6 51 -166 276 -94 133 -203 285 -241 339 -55 78 -73 96 -88 92
-12 -4 -27 2 -44 19 -30 30 -31 45 -6 78 19 24 19 25 -83 483 -57 253 -114
507 -126 565 -21 95 -27 107 -54 125 -37 24 -43 48 -22 80 19 29 66 34 90 9z
m-455 -6085 c55 -125 87 -186 92 -177 5 7 43 93 86 191 68 154 81 177 100 177
13 0 23 -3 23 -7 0 -5 -42 -102 -92 -216 -93 -207 -93 -208 -123 -205 -29 3
-34 11 -122 208 -51 113 -93 208 -93 213 0 4 10 7 23 7 20 0 33 -23 106 -191z
m391 162 c0 -24 -3 -28 -20 -24 -13 3 -20 14 -20 29 0 17 6 24 20 24 15 0 20
-7 20 -29z m248 -77 c13 -4 22 -14 22 -25 0 -15 -7 -19 -35 -19 -24 0 -44 -9
-66 -28 -31 -27 -31 -28 -32 -137 -2 -106 -3 -110 -25 -113 l-23 -3 3 158 c3
150 4 158 23 158 11 0 20 -5 20 -12 0 -6 3 -15 8 -19 4 -4 7 -2 7 5 0 6 15 18
33 26 38 17 36 16 65 9z m697 -23 c73 -42 98 -147 55 -231 -52 -102 -220 -108
-286 -11 -28 42 -33 134 -10 179 43 83 156 113 241 63z m-945 -141 c0 -153 -1
-160 -20 -160 -19 0 -20 7 -20 160 0 153 1 160 20 160 19 0 20 -7 20 -160z
m544 135 l36 -24 0 24 c0 18 5 25 20 25 19 0 20 -7 20 -177 0 -154 -3 -181
-18 -199 -29 -37 -76 -54 -145 -54 -71 0 -123 25 -138 68 -7 18 -5 22 12 22
12 0 29 -10 39 -22 16 -20 28 -23 88 -23 79 0 106 16 117 67 9 40 2 44 -35 16
-25 -18 -44 -23 -91 -23 -63 1 -95 17 -133 69 -31 40 -30 149 1 192 48 67 158
86 227 39z"/>
<path d="M5434 691 c-89 -54 -57 -209 46 -226 103 -17 180 85 135 179 -31 64
-117 86 -181 47z"/>
<path d="M5051 697 c-42 -21 -64 -61 -63 -113 0 -58 24 -93 76 -111 106 -36
193 59 151 164 -25 63 -103 92 -164 60z"/>
</g>
</svg>
