<?xml version="1.0" standalone="no"?>
<!DOCTYPE svg PUBLIC "-//W3C//DTD SVG 20010904//EN"
 "http://www.w3.org/TR/2001/REC-SVG-20010904/DTD/svg10.dtd">
<svg version="1.0" xmlns="http://www.w3.org/2000/svg"
 width="980.000000pt" height="980.000000pt" viewBox="0 0 980.000000 980.000000"
 preserveAspectRatio="xMidYMid meet">

<g transform="translate(0.000000,980.000000) scale(0.100000,-0.100000)"
fill="#000000" stroke="none">
<path d="M0 4900 l0 -4900 4900 0 4900 0 0 4900 0 4900 -4900 0 -4900 0 0
-4900z m4780 2481 c21 -40 14 -61 -32 -94 -13 -9 -28 -77 -63 -284 l-47 -271
22 -30 c25 -34 -24 -25 485 -92 l299 -40 23 21 c16 16 29 20 50 15 15 -4 33
-7 38 -8 6 0 90 48 188 107 139 85 177 112 177 129 0 27 9 40 38 55 19 10 28
10 47 -3 33 -22 40 -52 20 -83 -15 -22 -22 -25 -59 -20 -38 6 -52 0 -218 -99
-165 -99 -176 -107 -183 -140 -8 -44 -42 -63 -81 -45 -14 6 -28 20 -31 31 -3
11 -9 20 -12 20 -4 0 -178 22 -386 50 l-379 50 -19 -21 c-19 -21 -37 -21 -92
-5 -24 7 -736 -274 -746 -295 -3 -8 -11 -24 -17 -36 -9 -18 10 -66 138 -339
140 -301 150 -319 180 -327 41 -10 57 -50 34 -85 -9 -13 -24 -27 -35 -29 -18
-5 -31 -39 -84 -225 -15 -53 -15 -59 1 -84 14 -21 16 -31 7 -55 -11 -28 -5
-40 94 -202 58 -94 110 -182 116 -194 6 -15 19 -23 34 -23 13 0 31 -5 41 -11
14 -8 46 5 164 66 96 50 145 80 142 89 -3 7 3 23 14 36 30 38 102 24 102 -20
0 -13 20 -22 83 -39 45 -12 504 -132 1021 -267 855 -223 940 -244 955 -229 22
19 65 19 81 0 7 -8 20 -15 29 -15 9 0 159 25 334 57 307 55 318 57 330 82 9
19 21 27 45 29 45 5 64 -13 60 -57 -2 -28 -9 -39 -32 -49 -25 -13 -31 -12 -57
7 l-30 22 -312 -56 c-172 -31 -319 -58 -328 -61 -9 -2 -21 -15 -27 -29 -22
-47 -95 -41 -108 9 -5 21 -39 32 -457 141 -249 65 -614 160 -812 212 -801 209
-769 202 -790 187 -22 -16 -71 -18 -80 -4 -4 7 -66 -20 -156 -67 -121 -63
-149 -81 -149 -99 0 -32 -34 -58 -67 -51 -25 5 -43 -10 -195 -160 -100 -100
-164 -171 -161 -180 10 -25 -7 -62 -34 -77 -24 -12 -30 -27 -60 -161 -30 -133
-32 -149 -18 -165 18 -19 19 -50 5 -82 -9 -19 -1 -50 41 -168 28 -80 56 -160
62 -178 7 -23 21 -38 44 -47 38 -16 52 -54 33 -91 -12 -21 -1 -50 128 -331 77
-170 156 -342 175 -383 28 -62 38 -76 58 -77 63 -5 65 -99 3 -117 -43 -13
-100 67 -64 89 6 3 10 12 10 20 0 11 -324 732 -343 763 -5 6 -15 12 -24 12
-43 0 -67 57 -40 94 12 16 9 32 -21 115 -18 53 -48 137 -65 186 -27 74 -36 91
-55 93 -12 2 -30 15 -39 28 -19 30 -6 68 30 85 21 9 28 30 58 162 33 145 34
152 17 169 -40 40 -10 98 51 98 33 0 49 13 198 163 133 132 162 166 157 183
-3 12 -1 31 5 42 10 18 -2 43 -85 179 -138 226 -143 233 -160 233 -9 0 -28 7
-43 16 -27 16 -38 14 -262 -40 -129 -32 -317 -77 -419 -102 -175 -42 -186 -46
-198 -73 -11 -25 -8 -34 29 -104 33 -60 47 -77 67 -79 14 -2 34 -15 44 -29 17
-22 17 -29 7 -53 -8 -17 -23 -29 -40 -33 -22 -4 -33 -18 -57 -74 -30 -67 -30
-70 -15 -98 16 -27 16 -30 0 -55 -13 -19 -26 -26 -50 -27 -29 0 -43 -14 -157
-156 -69 -85 -123 -161 -121 -167 16 -51 -22 -103 -67 -91 -21 5 -34 -3 -78
-46 -46 -45 -52 -56 -47 -81 11 -54 -61 -92 -101 -53 -19 19 -34 19 -157 -2
-81 -13 -102 -20 -111 -37 -14 -27 -28 -36 -55 -36 -51 0 -73 75 -31 104 30
21 47 20 74 -4 l21 -21 119 20 c65 12 121 26 123 32 9 29 44 51 70 46 24 -5
36 2 78 46 40 41 50 59 50 84 0 42 18 63 57 63 29 0 43 14 156 153 112 137
124 156 122 187 -3 42 15 70 45 73 17 1 29 17 53 72 29 66 30 73 17 99 -11 20
-12 34 -5 54 9 24 5 38 -32 103 -36 64 -47 77 -68 77 -46 0 -70 63 -36 96 20
20 62 21 84 1 15 -13 61 -4 439 88 390 94 424 104 432 125 5 13 22 29 37 34
25 10 31 24 69 152 36 123 40 143 27 157 -17 18 -18 61 -3 76 10 10 -36 118
-216 498 -32 66 -61 130 -66 143 -6 14 -17 22 -33 22 -30 0 -57 35 -51 64 4
17 -16 36 -107 101 -61 44 -163 119 -227 166 -129 95 -276 203 -364 268 -47
34 -61 40 -73 31 -11 -10 -21 -10 -44 0 -38 16 -48 51 -26 85 31 47 106 22
106 -35 0 -24 41 -58 376 -303 320 -235 379 -275 396 -266 14 7 27 6 49 -5 30
-15 37 -13 402 133 325 129 372 151 375 170 2 13 16 30 31 38 26 16 28 24 75
290 l47 273 -20 26 c-25 32 -26 43 -5 72 20 29 79 31 94 3z m-1152 -6535 c37
-19 61 -47 72 -85 8 -28 7 -31 -15 -31 -17 0 -26 8 -34 30 -29 86 -231 72
-231 -15 0 -44 39 -66 145 -81 107 -14 155 -52 155 -121 0 -39 -33 -89 -72
-110 -48 -26 -162 -25 -208 3 -41 24 -80 77 -80 110 0 19 5 24 25 24 15 0 25
-6 25 -15 0 -55 57 -95 135 -95 74 0 125 36 125 88 0 34 -35 52 -136 73 -117
23 -139 36 -155 88 -10 33 -9 45 7 78 12 23 32 45 54 55 43 22 150 24 188 4z
m992 -21 c0 -18 -5 -25 -19 -25 -11 0 -23 5 -26 10 -11 18 3 40 25 40 15 0 20
-7 20 -25z m1080 0 c0 -18 -5 -25 -20 -25 -15 0 -20 7 -20 25 0 18 5 25 20 25
15 0 20 -7 20 -25z m-930 -40 c0 -45 0 -45 36 -45 28 0 35 -3 32 -17 -2 -12
-14 -19 -36 -21 l-33 -3 3 -117 3 -117 33 -3 c25 -3 32 -8 30 -20 -2 -13 -14
-17 -48 -17 -61 0 -70 20 -70 163 l0 112 -25 0 c-18 0 -25 5 -25 20 0 15 7 20
25 20 23 0 25 4 25 45 0 41 2 45 25 45 23 0 25 -4 25 -45z m170 0 c0 -45 0
-45 35 -45 28 0 35 -4 35 -20 0 -16 -7 -20 -35 -20 l-35 0 0 -108 c0 -115 6
-132 47 -132 16 0 23 -6 23 -20 0 -17 -7 -20 -39 -20 -65 0 -71 13 -71 156 l0
124 -25 0 c-18 0 -25 5 -25 20 0 15 7 20 25 20 23 0 25 4 25 45 0 38 3 45 20
45 17 0 20 -7 20 -45z m-928 -45 c59 -17 68 -39 68 -161 0 -98 2 -107 20 -112
29 -7 25 -35 -7 -43 -20 -5 -30 -2 -44 15 l-18 22 -33 -21 c-37 -22 -135 -28
-169 -10 -28 16 -51 67 -44 100 11 50 49 69 177 85 61 8 85 29 65 58 -33 49
-138 43 -172 -11 -11 -17 -28 -31 -39 -32 -16 0 -17 5 -12 32 8 41 23 56 72
73 47 17 87 18 136 5z m381 -14 c44 -22 47 -22 47 -5 0 14 7 19 25 19 l25 0 0
-160 c0 -179 -9 -219 -57 -243 -75 -38 -179 -32 -225 13 -15 16 -28 36 -28 44
0 23 37 20 50 -3 14 -28 71 -44 126 -35 59 9 84 33 84 82 0 20 -4 32 -8 26
-34 -49 -144 -61 -202 -21 -49 32 -73 79 -73 142 0 128 120 200 236 141z m878
14 c57 -16 63 -30 69 -159 4 -94 8 -116 20 -116 28 0 23 -34 -6 -41 -21 -5
-31 -2 -45 15 l-18 22 -33 -21 c-60 -36 -184 -21 -202 25 -12 31 -6 83 12 104
13 16 39 26 102 37 107 18 117 21 124 39 15 41 -48 71 -115 56 -48 -11 -58
-18 -69 -47 -11 -27 -50 -34 -50 -9 0 14 27 75 33 75 1 0 20 7 42 15 48 17 87
18 136 5z m347 -17 c3 -21 -1 -23 -38 -23 -33 0 -48 -6 -71 -29 -29 -29 -29
-31 -29 -140 0 -104 -1 -111 -20 -111 -19 0 -20 7 -20 160 0 153 1 160 20 160
14 0 20 -7 20 -21 0 -20 1 -20 31 6 41 34 102 33 107 -2z m748 12 c23 -9 39
-26 48 -47 23 -55 -4 -63 -46 -14 -44 51 -168 44 -176 -10 -4 -31 13 -39 113
-57 73 -13 94 -21 113 -42 25 -29 27 -52 10 -90 -33 -73 -202 -84 -264 -18
-25 27 -33 73 -12 73 6 0 26 -16 44 -35 29 -32 36 -35 91 -35 64 0 103 19 103
49 0 29 -22 41 -110 56 -94 17 -125 33 -134 70 -21 85 111 146 220 100z
m-1746 -156 l0 -160 -22 3 c-22 3 -23 6 -26 148 -1 79 0 150 2 157 3 7 15 13
26 13 19 0 20 -6 20 -161z m1080 1 c0 -153 -1 -160 -20 -160 -19 0 -20 7 -20
160 0 153 1 160 20 160 19 0 20 -7 20 -160z m132 39 c3 -113 5 -122 27 -140
49 -40 142 -14 167 46 9 21 14 69 14 125 0 83 1 90 20 90 19 0 20 -7 20 -160
0 -153 -1 -160 -20 -160 -15 0 -20 7 -20 26 l0 25 -32 -23 c-27 -19 -46 -23
-101 -23 -63 0 -71 2 -93 28 -23 27 -24 35 -24 158 0 120 1 129 19 129 18 0
20 -10 23 -121z"/>
<path d="M3936 570 c-87 -19 -106 -29 -106 -61 0 -60 139 -66 187 -7 14 17 28
88 17 87 -5 0 -49 -9 -98 -19z"/>
<path d="M4252 684 c-72 -50 -67 -170 10 -210 44 -23 113 -14 145 19 50 50 40
163 -18 192 -37 20 -109 19 -137 -1z"/>
<path d="M5201 569 c-89 -20 -111 -31 -111 -59 0 -35 35 -53 96 -48 49 4 62
10 86 37 26 29 40 93 21 90 -5 -1 -46 -10 -92 -20z"/>
</g>
</svg>
