<?xml version='1.0' encoding='utf-8'?>
<svg xmlns="http://www.w3.org/2000/svg" version="1.0" width="980.000000pt" height="980.000000pt" viewBox="0 0 980.000000 980.000000" preserveAspectRatio="xMidYMid meet">

<g transform="translate(0.000000,980.000000) scale(0.100000,-0.100000)" fill="#ffffff" stroke="none">
<path d="M 4654.0 6859.0  c14 -11 26 -28 26 -38 0 -28 -30 -61 -55 -61 -20 0 -30 -11 -55 -60 -24 -47 -28 -65 -20 -80 5 -10 10 -27 10 -38 0 -14 30 -39 101 -85 88 -58 103 -65 126 -56 19 7 32 6 49 -6 22 -14 36 -10 265 85 287 120 279 116 279 140 0 11 12 27 26 37 24 15 29 15 52 2 15 -8 30 -28 35 -45 8 -27 28 -40 180 -117 175 -88 509 -259 943 -482 227 -118 242 -124 271 -113 45 17 83 -9 83 -56 0 -32 26 -58 393 -403 500 -471 472 -446 497 -438 13 4 31 0 45 -9 47 -31 22 -106 -35 -106 -35 0 -55 24 -55 65 0 28 -40 69 -431 437 -374 351 -435 405 -457 401 -35 -7 -65 12 -74 48 -9 34 60 -4 -897 487 -488 251 -471 244 -523 217 -2 -1 -41 -147 -87 -326 -47 -178 -114 -438 -150 -578 -60 -229 -65 -256 -51 -271 38 -42 6 -105 -51 -98 -31 4 -47 -8 -212 -157 -98 -88 -341 -306 -540 -484 -294 -262 -361 -327 -356 -343 7 -25 -21 -68 -45 -68 -10 0 -23 -6 -28 -12 -6 -7 -81 -175 -168 -373 -87 -198 -200 -454 -251 -569 -70 -158 -90 -214 -83 -227 16 -30 10 -67 -13 -83 -30 -21 -47 -20 -75 6 l-23 22 -252 -23 -252 -23 -27 -29 c-15 -16 -34 -29 -43 -29 -22 0 -69 48 -63 64 3 8 -86 57 -260 144 -256 128 -266 132 -298 121 -28 -11 -37 -10 -59 5 -30 19 -35 65 -11 90 14 13 9 36 -42 216 -55 192 -58 201 -90 220 -59 34 -38 109 30 111 29 0 46 17 177 172 79 95 257 304 395 466 232 274 250 297 247 329 -5 59 36 86 92 61 22 -10 54 1 273 94 136 58 310 131 386 163 75 31 137 63 137 69 0 21 41 65 59 65 14 0 30 27 64 108 443 1054 439 1045 426 1083 -21 68 34 112 89 73 26 -18 30 -19 90 -4 51 12 67 21 78 42 9 17 27 31 45 36 25 6 38 20 61 64 24 47 27 59 17 76 -16 26 -3 71 24 82 31 12 31 12 61 -11z m-735 -6201 c51 -112 95 -209 98 -215 3 -9 -4 -13 -19 -13 -21 0 -29 10 -53 65 l-27 65 -118 0 -117 0 -28 -65 c-23 -55 -31 -65 -52 -65 -13 0 -22 3 -20 8 2 4 46 100 98 215 125 276 113 275 238 5z m1561 173 c0 -39 -34 -37 -38 2 -3 22 1 27 17 27 16 0 21 -6 21 -29z m-102 -77 c13 -4 22 -14 22 -25 0 -14 -7 -19 -30 -19 -44 0 -77 -19 -95 -56 -8 -18 -15 -36 -14 -41 1 -4 1 -47 0 -95 -1 -81 -3 -88 -21 -88 -20 0 -20 5 -18 158 3 149 4 157 23 157 14 0 19 -5 16 -20 -3 -19 -2 -19 16 -3 16 15 57 36 73 37 3 1 15 -2 28 -5z m784 -22 c24 -14 48 -50 48 -72 0 -6 -11 -10 -25 -10 -15 0 -25 6 -25 14 0 45 -139 66 -175 26 -36 -40 -8 -59 114 -80 82 -14 121 -41 121 -84 0 -68 -55 -106 -156 -106 -66 0 -108 20 -129 60 -21 40 -19 50 10 50 14 0 25 -6 25 -13 0 -45 98 -71 163 -43 33 13 38 19 35 43 -3 31 -24 40 -143 62 -69 12 -95 36 -95 85 0 81 141 122 232 68z m-1852 -12 c33 -23 33 -23 28 -3 -6 22 15 39 33 27 5 -3 9 -99 9 -215 0 -202 -1 -209 -20 -209 -21 0 -23 6 -20 82 2 63 -5 73 -36 49 -58 -46 -157 -35 -214 24 -33 34 -35 40 -35 108 0 60 4 78 24 106 32 45 74 62 142 58 39 -2 65 -10 89 -27z m200 -96 c3 -76 10 -127 18 -136 29 -35 121 -28 158 13 15 17 20 42 24 132 5 104 6 112 25 112 19 0 20 -8 23 -157 l3 -158 -26 0 c-19 0 -25 5 -25 21 l0 21 -33 -21 c-78 -48 -175 -32 -202 33 -16 37 -22 246 -8 260 4 4 14 5 23 4 12 -3 16 -26 20 -124z m569 111 c39 -19 43 -33 49 -157 3 -82 8 -108 18 -108 8 0 14 -9 14 -20 0 -28 -55 -28 -72 0 -11 17 -14 17 -28 5 -24 -22 -102 -39 -144 -31 -50 9 -86 46 -86 86 0 67 37 93 148 106 73 8 108 30 98 61 -8 24 -33 33 -92 33 -44 0 -94 -30 -94 -56 0 -8 -10 -14 -25 -14 -29 0 -28 -2 -14 39 17 48 61 71 137 71 36 0 75 -6 91 -15z m401 -145 c0 -153 -1 -160 -20 -160 -19 0 -20 7 -20 153 0 85 3 157 7 160 3 4 12 7 20 7 10 0 13 -33 13 -160z m132 43 c3 -65 8 -126 12 -135 10 -22 61 -39 95 -32 84 18 101 49 101 184 0 93 1 100 20 100 19 0 20 -7 20 -160 0 -153 -1 -160 -20 -160 -15 0 -20 7 -20 27 l0 26 -24 -22 c-51 -48 -154 -51 -197 -5 -22 23 -24 36 -27 145 -4 128 -1 149 21 149 11 0 16 -25 19 -117z M5310 6585 c-30 -13 -140 -59 -243 -103 -172 -72 -189 -82 -205 -113 -30 -61 -112 -47 -112 19 -1 23 -15 36 -99 90 -84 53 -103 61 -130 56 -21 -4 -39 -1 -57 11 -23 15 -33 15 -91 4 -55 -11 -67 -17 -79 -41 -9 -17 -26 -31 -42 -34 -25 -5 -42 -43 -271 -591 -181 -434 -241 -587 -232 -596 17 -17 13 -62 -7 -80 -22 -20 -42 -21 -75 -6 -20 9 -75 -11 -410 -153 -299 -126 -387 -167 -387 -180 0 -29 -39 -61 -67 -55 -21 4 -52 -28 -267 -282 -134 -157 -313 -369 -400 -470 -145 -171 -156 -187 -150 -216 4 -22 1 -35 -10 -44 -9 -8 -16 -21 -16 -30 0 -9 26 -105 57 -213 46 -161 60 -198 74 -198 20 0 49 -36 49 -60 0 -10 89 -60 266 -148 213 -106 269 -130 284 -122 29 16 58 12 80 -10 l20 -20 228 20 c286 26 289 26 297 50 3 11 20 23 36 27 28 8 38 27 155 293 69 157 184 417 255 579 91 206 127 297 120 304 -16 16 -13 73 4 87 9 7 32 13 52 12 32 -1 48 10 166 116 72 64 313 280 536 480 375 334 406 365 406 394 0 25 7 37 31 53 35 22 31 11 165 525 27 107 77 298 110 424 70 270 70 268 -41 221z M3753 712 c-23 -53 -38 -98 -35 -99 17 -5 172 -8 172 -3 0 10 -85 200 -90 200 -3 0 -24 -44 -47 -98z M4153 694 c-87 -44 -77 -189 17 -220 41 -14 106 -2 132 23 42 43 40 136 -5 180 -32 32 -99 40 -144 17z M5000 579 c-82 -15 -119 -29 -125 -48 -9 -30 5 -50 44 -62 76 -23 161 26 161 92 0 32 -4 33 -80 18z" fill-rule="evenodd" /></g>
</svg>