<?xml version='1.0' encoding='utf-8'?>
<svg xmlns="http://www.w3.org/2000/svg" version="1.0" width="980.000000pt" height="980.000000pt" viewBox="0 0 980.000000 980.000000" preserveAspectRatio="xMidYMid meet">

<g transform="translate(0.000000,980.000000) scale(0.100000,-0.100000)" fill="#ffffff" stroke="none">
<path d="M 5555.0 6875.0  c28 -28 31 -42 11 -70 -12 -18 7 -63 186 -450 313 -675 476 -1027 618 -1335 72 -157 153 -330 179 -385 25 -55 62 -135 81 -177 21 -47 41 -77 50 -78 54 -1 79 -71 40 -108 l-21 -19 35 -449 35 -448 25 -19 c47 -34 27 -100 -33 -109 -18 -2 -39 -28 -88 -109 -57 -93 -63 -110 -53 -128 14 -28 5 -57 -25 -77 -36 -24 -79 -1 -83 44 -4 41 12 62 47 62 23 0 35 14 94 110 55 90 65 114 57 130 -15 29 -12 45 13 71 l23 24 -32 415 c-18 228 -33 432 -33 453 -1 26 -5 37 -16 37 -8 0 -22 12 -32 26 -16 24 -16 29 -1 54 16 28 14 32 -143 372 -88 188 -166 357 -173 373 -8 17 -76 163 -151 325 -122 263 -358 774 -559 1209 -63 136 -75 156 -100 162 -15 4 -33 15 -39 23 -10 14 -26 15 -112 7 -55 -5 -581 -51 -1170 -102 l-1070 -92 -27 -29 c-15 -15 -37 -28 -49 -28 -54 0 -80 74 -37 104 31 22 54 20 80 -6 l21 -21 1176 102 c741 64 1177 106 1180 113 6 19 41 48 56 48 9 0 27 -11 40 -25z m-1059 -6275 c52 -112 94 -208 94 -212 0 -4 -9 -8 -21 -8 -15 0 -27 16 -50 65 l-29 65 -116 0 -115 0 -30 -65 c-22 -48 -34 -65 -49 -65 -11 0 -20 4 -20 9 0 4 34 82 76 172 42 90 85 183 95 207 16 37 23 43 45 40 23 -3 35 -24 120 -208z m410 184 c2 -15 -3 -23 -16 -27 -24 -6 -30 0 -30 30 0 19 5 24 22 21 13 -2 22 -11 24 -24z m-95 -84 c5 0 9 -9 9 -20 0 -16 -7 -20 -34 -20 -22 0 -45 -9 -63 -24 -27 -23 -28 -29 -33 -138 -5 -108 -6 -113 -27 -116 l-23 -3 0 155 0 156 26 0 c19 0 25 -4 20 -15 -8 -21 8 -19 28 4 19 20 51 31 74 25 8 -2 18 -4 23 -4z m424 -19 c35 -20 61 -62 70 -113 l7 -38 -147 0 -147 0 7 -27 c11 -45 32 -70 70 -83 50 -17 99 -5 129 30 25 31 66 41 66 16 0 -7 -10 -26 -22 -41 -56 -71 -192 -73 -254 -4 -81 91 -40 247 73 277 47 13 108 6 148 -17z m305 18 c53 -12 90 -43 90 -76 0 -30 -36 -32 -45 -2 -8 25 -43 39 -101 39 -53 0 -84 -14 -84 -38 0 -33 17 -42 106 -58 103 -20 130 -34 139 -74 15 -69 -48 -120 -148 -120 -69 0 -111 19 -137 63 -25 41 -25 47 3 47 15 0 28 -9 35 -24 30 -66 202 -53 202 15 0 25 -22 35 -107 48 -91 14 -119 27 -133 61 -23 55 10 103 83 120 44 11 46 11 97 -1z m-632 -163 c-3 -148 -3 -151 -25 -154 -23 -3 -23 -3 -23 151 0 84 3 156 6 159 3 3 14 4 25 1 18 -5 19 -13 17 -157z M4328 662 l-46 -100 67 -4 c82 -4 111 0 110 15 0 7 -19 52 -42 101 l-42 89 -47 -101z M5061 633 c-17 -16 -31 -37 -33 -48 -3 -19 3 -20 112 -20 109 0 115 1 112 20 -2 11 -16 32 -33 48 -24 22 -39 27 -79 27 -40 0 -55 -5 -79 -27z" fill-rule="evenodd" /></g>
</svg>