<?xml version='1.0' encoding='utf-8'?>
<svg xmlns="http://www.w3.org/2000/svg" version="1.0" width="980.000000pt" height="980.000000pt" viewBox="0 0 980.000000 980.000000" preserveAspectRatio="xMidYMid meet">

<g transform="translate(0.000000,980.000000) scale(0.100000,-0.100000)" fill="#ffffff" stroke="none">
<path d="M 2375.0 6870.0  c11 -12 16 -29 13 -45 -5 -22 18 -45 201 -203 251 -217 542 -468 926 -801 273 -236 292 -251 322 -245 46 9 77 -25 68 -73 -6 -33 3 -47 220 -336 215 -287 228 -302 263 -307 26 -4 40 -12 49 -30 11 -23 22 -26 175 -47 90 -12 390 -54 668 -93 278 -39 602 -84 720 -101 118 -16 483 -67 810 -113 585 -82 595 -83 616 -65 40 37 104 11 104 -43 0 -24 -35 -58 -60 -58 -20 0 -54 27 -61 49 -2 6 -147 31 -359 61 -195 27 -614 86 -930 130 -316 44 -609 85 -650 91 -41 6 -214 30 -385 54 -692 97 -634 91 -655 69 -18 -19 -17 -26 84 -379 57 -198 163 -569 235 -825 163 -576 147 -527 175 -534 20 -5 46 -42 46 -66 0 -19 -40 -50 -64 -50 -49 0 -75 63 -42 99 13 14 -15 120 -224 856 -132 462 -244 850 -249 863 -6 12 -17 22 -26 22 -25 0 -49 47 -38 73 10 21 -13 55 -219 330 -204 271 -234 307 -258 307 -34 0 -57 25 -62 67 -3 27 -47 69 -359 340 -196 169 -450 389 -564 488 -523 453 -487 425 -522 419 -35 -6 -73 22 -73 54 0 54 69 82 105 42z m1771 -6079 c44 -20 78 -60 89 -104 6 -24 4 -27 -19 -27 -16 0 -26 6 -26 15 0 28 -54 74 -102 87 -84 22 -167 -13 -205 -86 -22 -42 -19 -137 4 -183 57 -111 235 -110 293 1 23 42 46 57 63 40 3 -4 -1 -23 -9 -43 -36 -87 -130 -139 -227 -127 -119 16 -187 98 -187 226 0 141 79 220 220 220 42 0 79 -7 106 -19z m414 -119 c32 -24 38 -48 39 -156 1 -70 4 -91 18 -101 21 -16 10 -45 -17 -45 -11 0 -28 9 -37 19 -16 19 -17 19 -52 0 -23 -12 -56 -19 -94 -19 -51 0 -62 4 -88 29 -36 36 -38 79 -6 116 18 21 38 29 105 40 101 18 124 29 120 58 -2 16 -15 26 -45 35 -58 19 -117 2 -139 -39 -19 -37 -51 -36 -46 1 5 34 42 70 83 81 49 12 130 2 159 -19z m354 14 c59 -24 66 -45 66 -188 0 -121 -1 -128 -20 -128 -19 0 -20 7 -20 98 0 102 -11 160 -32 174 -7 4 -34 8 -60 8 -39 0 -54 -6 -80 -29 l-33 -29 -3 -111 c-3 -101 -5 -111 -23 -111 -18 0 -19 9 -19 160 0 153 1 160 20 160 15 0 20 -7 20 -25 l0 -26 29 22 c25 19 72 35 109 38 7 1 28 -5 46 -13z m376 -6 c42 -21 70 -54 70 -82 0 -27 -38 -22 -52 7 -11 24 -62 55 -92 55 -8 0 -33 -7 -55 -16 -85 -34 -96 -164 -19 -218 52 -37 156 -10 173 44 4 13 15 20 31 20 28 0 29 -2 8 -46 -24 -50 -77 -79 -144 -79 -100 1 -163 66 -163 171 0 69 26 113 83 142 55 27 109 28 160 2z m377 -6 c42 -31 64 -67 70 -112 l6 -42 -147 0 c-80 0 -146 -2 -146 -5 0 -3 6 -21 14 -39 19 -47 51 -66 110 -66 43 0 53 4 82 35 18 19 42 35 53 35 26 0 26 -7 1 -47 -27 -44 -74 -67 -140 -67 -102 -1 -163 60 -164 163 -1 70 24 117 80 149 49 29 139 27 181 -4z m311 -1 c3 -21 -1 -23 -38 -23 -31 0 -47 -6 -65 -26 -22 -24 -25 -36 -27 -138 -3 -103 -4 -111 -23 -111 -19 0 -20 8 -23 158 l-3 157 26 0 c17 0 25 -6 25 -17 0 -14 2 -15 18 -1 24 21 42 27 77 25 23 -2 31 -7 33 -24z M4451 520 c-106 -22 -133 -48 -91 -90 38 -38 154 -19 180 29 12 23 14 82 3 80 -5 -1 -46 -10 -92 -19z M5535 653 c-35 -9 -63 -34 -74 -64 l-10 -29 120 0 c65 0 119 2 119 5 0 4 -7 20 -16 36 -23 45 -81 66 -139 52z" fill-rule="evenodd" /></g>
</svg>