<?xml version='1.0' encoding='utf-8'?>
<svg xmlns="http://www.w3.org/2000/svg" version="1.0" width="980.000000pt" height="980.000000pt" viewBox="0 0 980.000000 980.000000" preserveAspectRatio="xMidYMid meet">

<g transform="translate(0.000000,980.000000) scale(0.100000,-0.100000)" fill="#ffffff" stroke="none">
<path d="M 2359.0 6476.0  c7 -8 16 -27 19 -41 6 -21 37 -43 146 -106 98 -56 142 -77 149 -70 6 6 24 11 39 11 22 0 33 -8 46 -30 19 -34 9 -31 262 -91 654 -155 606 -145 628 -126 10 10 28 17 40 17 25 0 62 -33 62 -54 0 -10 88 -43 278 -105 514 -167 472 -155 503 -137 32 19 71 9 88 -22 9 -18 28 -19 293 -25 156 -3 708 -15 1229 -28 l945 -23 22 22 c12 12 34 22 50 22 24 1 43 23 154 177 105 146 125 180 117 195 -13 25 -3 55 26 74 35 23 79 1 83 -41 3 -41 -10 -57 -51 -64 -32 -5 -47 -22 -161 -180 -100 -140 -123 -178 -115 -192 21 -40 -27 -95 -73 -84 -19 5 -68 -34 -290 -235 -252 -226 -268 -243 -268 -275 0 -42 -34 -69 -72 -60 -20 5 -31 0 -53 -27 -24 -29 -531 -566 -801 -848 -371 -388 -399 -421 -399 -456 -1 -46 -26 -69 -76 -69 -36 0 -58 -12 -184 -105 -129 -94 -143 -108 -143 -134 1 -34 -24 -56 -63 -56 -33 0 -52 22 -52 62 0 27 -31 57 -294 292 -268 240 -296 262 -323 258 -41 -6 -73 23 -68 60 4 24 -12 41 -146 160 -559 493 -646 567 -661 562 -47 -18 -97 34 -75 77 16 29 -35 98 -72 99 -40 0 -61 26 -55 69 4 34 -10 54 -196 306 -332 448 -329 445 -356 445 -52 0 -80 62 -46 100 14 16 9 43 -52 289 -67 269 -68 272 -100 291 -26 15 -33 26 -33 49 0 16 7 37 16 45 19 20 68 21 83 2z m1067 -5635 c44 -20 78 -60 89 -104 6 -24 4 -27 -19 -27 -17 0 -26 5 -26 16 0 9 -15 31 -33 49 -75 75 -223 49 -274 -48 -23 -45 -21 -135 4 -183 58 -113 234 -112 295 3 17 32 29 43 46 43 20 0 22 -4 16 -22 -27 -91 -114 -158 -203 -158 -88 0 -173 55 -205 132 -33 78 -15 200 37 257 55 60 188 80 273 42z m1204 -16 c0 -18 -5 -25 -20 -25 -15 0 -20 7 -20 25 0 18 5 25 20 25 15 0 20 -7 20 -25z m-791 -103 c31 -23 38 -51 40 -161 1 -66 5 -86 18 -96 21 -16 10 -45 -17 -45 -11 0 -28 9 -37 19 -16 19 -17 19 -52 0 -23 -12 -56 -19 -94 -19 -51 0 -62 4 -88 29 -21 21 -29 39 -29 63 0 48 33 76 106 89 100 18 135 30 141 46 16 42 -57 72 -128 53 -27 -8 -43 -20 -55 -41 -19 -37 -50 -36 -46 1 3 32 38 68 76 80 46 14 136 4 165 -18z m391 -1 c74 -53 94 -161 45 -234 -33 -48 -72 -67 -137 -67 -40 0 -62 6 -90 25 l-37 25 1 -22 c0 -13 0 -49 -1 -80 -1 -51 -3 -58 -21 -58 -19 0 -20 7 -20 216 l0 215 23 -3 c17 -2 21 -9 19 -27 l-2 -25 23 23 c14 12 37 26 53 31 40 12 114 3 144 -19z m318 2 c3 -21 -1 -23 -42 -23 -39 0 -48 -4 -70 -33 -24 -31 -26 -42 -26 -140 0 -100 -1 -107 -20 -107 -19 0 -20 7 -20 160 0 153 1 160 20 160 14 0 20 -7 20 -22 1 -20 2 -21 13 -7 20 26 50 39 87 36 28 -1 36 -7 38 -24z m392 9 c31 -15 80 -72 80 -93 0 -22 -46 -7 -62 20 -35 63 -144 62 -191 -1 -41 -55 -22 -155 35 -184 58 -30 152 -6 164 43 4 16 14 23 30 23 29 0 30 -15 4 -58 -23 -37 -88 -71 -135 -72 -40 0 -114 38 -138 72 -21 28 -34 111 -23 152 9 35 54 86 91 102 42 19 104 17 145 -4z m370 -4 c55 -29 80 -74 80 -146 0 -93 -51 -155 -140 -167 -42 -6 -58 -3 -98 17 -64 31 -92 76 -92 146 0 138 126 213 250 150z m328 -5 c3 -20 -2 -22 -45 -25 -41 -3 -50 -7 -70 -37 -20 -30 -23 -46 -23 -137 0 -97 -1 -104 -20 -104 -19 0 -20 7 -20 160 0 153 1 160 20 160 14 0 20 -7 20 -21 0 -20 1 -20 31 6 41 34 102 33 107 -2z m290 1 c35 -23 42 -54 42 -185 0 -112 -1 -119 -20 -119 -18 0 -20 7 -20 83 -1 99 -12 164 -33 184 -18 18 -77 20 -118 3 -47 -20 -59 -55 -59 -170 0 -93 -1 -100 -20 -100 -19 0 -20 7 -20 160 0 153 1 160 20 160 15 0 20 -7 20 -27 l0 -26 23 20 c47 43 131 51 185 17z m696 12 c33 -14 66 -50 66 -72 0 -6 -9 -14 -21 -17 -15 -4 -23 0 -26 14 -7 24 -52 49 -91 49 -97 0 -137 -67 -54 -90 21 -5 42 -10 49 -10 37 0 118 -25 134 -41 29 -29 25 -85 -9 -119 -35 -34 -115 -48 -179 -31 -45 12 -93 60 -93 92 0 31 37 24 55 -11 18 -35 46 -44 122 -38 39 3 60 10 69 23 31 42 6 63 -100 80 -64 10 -95 20 -112 36 -27 25 -32 74 -11 102 34 45 134 61 201 33z m-1994 -156 c0 -153 -1 -160 -20 -160 -19 0 -20 7 -20 160 0 153 1 160 20 160 19 0 20 -7 20 -160z m1470 32 c6 -146 12 -157 94 -149 40 4 55 11 78 36 27 30 28 35 28 137 0 101 1 105 21 102 19 -3 20 -9 20 -158 0 -149 -1 -155 -20 -158 -17 -3 -21 2 -21 23 l0 26 -29 -22 c-37 -27 -119 -36 -162 -19 -47 20 -59 60 -59 195 0 115 0 116 23 113 21 -3 22 -8 27 -126z M2348 6385 c-3 -3 26 -131 64 -284 56 -225 74 -280 88 -284 10 -2 25 -16 35 -30 13 -20 14 -30 5 -47 -10 -19 17 -59 260 -385 190 -255 275 -362 286 -358 19 7 61 -21 69 -46 3 -11 2 -29 -4 -39 -8 -15 -4 -28 20 -60 19 -26 35 -39 45 -35 27 10 64 -24 64 -61 0 -31 21 -51 317 -312 174 -153 351 -309 393 -346 67 -60 78 -67 107 -62 41 8 77 -25 70 -64 -6 -29 -32 -3 342 -336 185 -165 249 -216 264 -212 10 2 29 1 42 -4 19 -7 44 7 171 101 86 63 149 118 150 127 2 52 32 79 78 70 11 -2 223 215 637 652 541 571 619 657 614 678 -3 14 1 34 10 48 13 20 23 24 54 23 36 -3 48 7 302 235 145 131 265 244 267 251 5 19 -62 22 -1326 52 l-1142 26 -21 -22 c-31 -33 -79 -26 -99 15 -14 29 -26 35 -160 78 -80 26 -248 80 -373 121 -222 72 -229 73 -256 57 -24 -13 -34 -14 -55 -4 -15 6 -30 22 -35 35 -8 19 -23 27 -83 40 -40 9 -233 54 -428 100 l-354 85 -28 -21 c-37 -27 -74 -12 -86 35 -7 29 -24 42 -143 110 -130 75 -150 84 -161 73z M3731 570 c-106 -22 -133 -48 -91 -90 14 -14 33 -20 66 -20 51 0 81 12 106 44 17 21 25 87 11 85 -5 -1 -46 -10 -92 -19z M4074 690 c-34 -14 -54 -55 -54 -113 0 -45 4 -59 26 -80 47 -47 131 -47 177 -1 48 48 43 142 -10 184 -27 21 -99 27 -139 10z M5173 696 c-57 -26 -82 -87 -63 -155 14 -54 56 -81 123 -81 40 0 54 5 77 28 98 98 -11 264 -137 208z" fill-rule="evenodd" /></g>
</svg>