<?xml version='1.0' encoding='utf-8'?>
<svg xmlns="http://www.w3.org/2000/svg" version="1.0" width="980.000000pt" height="980.000000pt" viewBox="0 0 980.000000 980.000000" preserveAspectRatio="xMidYMid meet">

<g transform="translate(0.000000,980.000000) scale(0.100000,-0.100000)" fill="#ffffff" stroke="none">
<path d="M 5976.0 7314.0  c15 -22 16 -31 5 -59 -14 -39 -67 91 446 -1094 185 -427 385 -888 444 -1026 97 -225 110 -250 135 -257 33 -9 44 -24 44 -60 0 -35 -24 -58 -60 -58 -25 0 -45 -20 -150 -147 -67 -82 -147 -179 -179 -218 -255 -311 -554 -675 -697 -850 -95 -115 -289 -353 -432 -528 -246 -299 -260 -319 -255 -350 3 -24 0 -39 -12 -50 -35 -35 -105 -10 -105 38 0 29 41 66 70 63 20 -3 61 42 258 282 129 157 253 308 276 336 64 80 971 1186 1112 1356 101 123 101 121 -91 218 -83 42 -409 203 -725 360 -863 426 -1643 811 -1749 864 -65 32 -98 43 -105 36 -5 -5 -18 -10 -28 -10 -10 0 -23 -10 -28 -22 -8 -20 -1227 -3331 -1290 -3505 -20 -55 -21 -64 -7 -82 19 -28 10 -70 -19 -83 -59 -27 -113 31 -76 81 10 15 28 27 38 29 20 3 35 41 355 912 110 300 465 1263 724 1965 95 259 192 521 215 584 35 95 40 118 31 138 -18 40 -13 71 14 89 21 13 30 14 53 5 33 -14 -80 -78 957 549 358 216 667 403 687 414 26 15 38 28 38 44 0 12 9 31 20 42 28 28 66 26 86 -6z m-1748 -6701 l2 -193 130 0 c123 0 130 -1 130 -20 0 -19 -7 -20 -155 -20 l-155 0 0 216 0 215 23 -3 c22 -3 22 -4 25 -195z m367 167 c0 -16 -6 -26 -18 -28 -19 -4 -32 20 -23 44 9 25 41 13 41 -16z m133 -52 l3 -77 37 25 c32 22 45 25 95 22 95 -7 151 -67 151 -163 0 -101 -72 -169 -172 -162 -34 2 -63 12 -82 26 -30 21 -30 21 -30 1 0 -15 -7 -20 -25 -20 l-25 0 0 208 c0 115 3 212 7 216 4 4 14 5 23 4 12 -3 16 -20 18 -80z m532 -53 c0 -21 -4 -24 -23 -20 -52 14 -119 -47 -116 -105 1 -14 1 -58 0 -97 -1 -66 -3 -73 -21 -73 -19 0 -20 7 -20 156 l0 155 23 -3 c12 -2 21 -9 20 -16 -4 -17 5 -15 34 8 16 12 41 20 64 20 35 0 39 -3 39 -25z m276 9 c43 -20 52 -52 53 -186 1 -62 4 -78 16 -78 8 0 15 -9 15 -20 0 -29 -66 -29 -75 0 -6 19 -7 19 -35 -2 -39 -29 -126 -36 -168 -14 -37 19 -52 43 -52 83 0 55 34 79 131 93 110 17 147 49 97 84 -46 33 -143 14 -163 -32 -6 -14 -19 -22 -33 -22 -20 0 -22 4 -16 23 13 41 36 67 68 76 50 15 125 12 162 -5z m-936 -149 l0 -155 -25 0 -25 0 0 155 0 155 25 0 25 0 0 -155z M5375 6934 c-275 -167 -645 -390 -822 -496 -274 -164 -322 -197 -323 -216 0 -24 123 -87 1575 -802 176 -87 504 -248 728 -359 224 -110 412 -201 417 -201 6 0 10 3 10 6 0 4 -63 151 -139 328 -76 176 -219 506 -316 731 -98 226 -249 577 -337 780 -88 204 -174 402 -191 442 -21 50 -36 73 -51 76 -12 2 -28 7 -36 10 -9 3 -228 -124 -515 -299z M4782 640 c-72 -44 -70 -171 3 -210 58 -31 144 -9 169 45 57 120 -60 233 -172 165z M5440 523 c-80 -15 -112 -38 -103 -72 2 -10 16 -24 29 -30 74 -34 174 19 174 91 0 31 4 31 -100 11z" fill-rule="evenodd" /></g>
</svg>