<?xml version='1.0' encoding='utf-8'?>
<svg xmlns="http://www.w3.org/2000/svg" version="1.0" width="980.000000pt" height="980.000000pt" viewBox="0 0 980.000000 980.000000" preserveAspectRatio="xMidYMid meet">

<g transform="translate(0.000000,980.000000) scale(0.100000,-0.100000)" fill="#ffffff" stroke="none">
<path d="M 4442.0 7723.0  c24 -21 23 -58 -1 -82 -20 -20 -20 -21 9 -188 31 -180 30 -175 265 -1568 87 -514 161 -922 167 -924 10 -3 28 -21 54 -53 6 -8 354 -82 853 -182 766 -154 844 -168 853 -153 6 11 22 17 43 17 63 0 84 -71 32 -105 -30 -19 -65 -9 -82 25 -14 26 -23 29 -497 123 -266 54 -646 130 -845 170 -351 72 -363 73 -379 55 -10 -10 -22 -18 -29 -18 -7 0 -16 -40 -23 -112 -11 -107 -11 -113 8 -130 34 -32 21 -91 -23 -102 -19 -4 -26 -19 -44 -88 -20 -72 -20 -84 -8 -98 19 -21 19 -60 1 -86 -14 -19 -5 -59 87 -417 85 -335 104 -397 119 -397 28 0 53 -46 42 -78 -9 -25 19 -71 367 -594 319 -477 381 -566 398 -561 24 6 61 -29 61 -59 0 -56 -76 -79 -106 -32 -13 19 -15 32 -8 52 9 25 -21 73 -364 587 -328 492 -376 561 -402 566 -17 4 -37 12 -45 19 -19 16 -19 59 0 80 19 20 26 -18 -90 434 -98 383 -99 386 -120 386 -21 0 -48 45 -41 68 9 28 -130 152 -159 142 -48 -18 -90 33 -68 83 14 31 -92 217 -124 217 -24 0 -63 35 -63 56 0 7 5 23 10 36 12 26 73 -94 -736 1458 -82 157 -209 402 -284 545 -96 184 -141 261 -155 265 -59 15 -81 64 -46 99 25 25 58 27 83 4 19 -17 24 -63 8 -79 -9 -9 126 -275 734 -1439 101 -192 239 -457 307 -587 97 -189 127 -238 143 -238 43 0 68 -48 47 -89 -14 -26 97 -213 130 -218 32 -4 62 -41 55 -68 -4 -17 9 -34 64 -83 97 -88 113 -83 144 41 18 72 18 78 3 95 -25 27 -21 50 12 81 27 26 31 37 42 133 11 102 11 106 -10 127 -26 26 -27 51 -2 82 22 28 31 -42 -88 659 -44 261 -121 718 -171 1015 -170 1008 -168 999 -187 1012 -35 24 -43 34 -43 55 0 50 64 76 102 41z m-164 -6935 c-3 -21 -9 -23 -85 -26 l-83 -3 0 -189 c0 -183 -1 -190 -20 -190 -19 0 -20 7 -20 190 l0 190 -79 0 c-80 0 -98 8 -87 35 4 12 38 15 191 15 l186 0 -3 -22z m913 -88 c30 -17 24 -40 -11 -40 -42 0 -84 -23 -98 -55 -7 -14 -12 -70 -12 -125 0 -93 -1 -100 -20 -100 -19 0 -20 7 -20 159 0 154 1 159 20 154 11 -3 20 -12 20 -21 0 -13 2 -13 18 1 17 15 58 35 75 36 5 1 17 -4 28 -9z m605 -1 c47 -12 84 -48 84 -80 0 -12 -7 -19 -20 -19 -11 0 -20 4 -20 10 0 5 -10 18 -22 30 -16 15 -35 20 -76 20 -66 0 -92 -13 -92 -46 0 -29 23 -40 102 -50 84 -10 135 -36 143 -73 15 -70 -46 -121 -148 -121 -81 0 -134 31 -151 88 -6 19 -4 22 18 22 16 0 27 -7 31 -21 13 -40 99 -60 163 -38 33 11 46 32 37 60 -7 21 -17 25 -107 39 -87 13 -114 26 -128 61 -24 56 8 102 83 119 46 11 53 11 103 -1z m-1285 -14 c41 -22 49 -50 49 -166 0 -81 3 -99 15 -99 8 0 15 -9 15 -20 0 -29 -60 -29 -67 0 -7 25 -9 25 -40 1 -58 -47 -180 -35 -208 19 -19 36 -19 54 0 90 16 31 49 45 135 56 77 9 100 20 100 45 0 31 -28 48 -80 49 -54 0 -91 -17 -105 -48 -6 -13 -19 -22 -33 -22 -22 0 -22 1 -7 37 19 44 14 38 50 57 39 21 137 21 176 1z m779 -101 c0 -56 4 -114 10 -129 19 -50 105 -56 158 -10 26 22 27 29 32 137 5 105 6 113 25 113 19 0 20 -8 23 -158 l3 -158 -23 3 c-15 2 -22 9 -22 21 1 10 -1 16 -5 14 -70 -38 -107 -49 -145 -43 -57 10 -83 30 -95 73 -11 39 -15 235 -5 245 3 3 14 4 25 1 17 -5 19 -15 19 -109z m-590 -7 c0 -123 9 -150 55 -161 38 -10 101 11 124 41 18 22 21 40 21 129 0 97 1 104 20 104 19 0 20 -7 21 -97 3 -206 2 -213 -21 -213 -15 0 -20 7 -20 26 l0 26 -30 -26 c-39 -33 -105 -43 -153 -23 -55 24 -67 57 -67 192 l0 115 25 0 25 0 0 -113z M4412 524 c-82 -15 -102 -26 -102 -59 0 -47 66 -67 134 -41 45 17 66 46 66 91 0 28 2 28 -98 9z" fill-rule="evenodd" /></g>
</svg>