<?xml version='1.0' encoding='utf-8'?>
<svg xmlns="http://www.w3.org/2000/svg" version="1.0" width="980.000000pt" height="980.000000pt" viewBox="0 0 980.000000 980.000000" preserveAspectRatio="xMidYMid meet">

<g transform="translate(0.000000,980.000000) scale(0.100000,-0.100000)" fill="#ffffff" stroke="none">
<path d="M 5555.0 6875.0  c28 -28 31 -42 11 -70 -12 -18 7 -63 186 -450 313 -675 476 -1027 618 -1335 72 -157 153 -330 179 -385 25 -55 62 -135 81 -177 21 -47 41 -77 50 -78 54 -1 79 -71 40 -108 l-21 -19 35 -449 35 -448 25 -19 c47 -34 27 -100 -33 -109 -18 -2 -39 -28 -88 -109 -57 -93 -63 -110 -53 -128 14 -28 5 -57 -25 -77 -36 -24 -79 -1 -83 44 -4 41 12 62 47 62 23 0 35 14 94 110 55 90 65 114 57 130 -15 29 -12 45 13 71 l23 24 -32 415 c-18 228 -33 432 -33 453 -1 26 -5 37 -16 37 -8 0 -22 12 -32 26 -16 24 -16 29 -1 54 16 28 14 32 -143 372 -88 188 -166 357 -173 373 -8 17 -76 163 -151 325 -122 263 -358 774 -559 1209 -63 136 -75 156 -100 162 -15 4 -33 15 -39 23 -10 14 -26 15 -112 7 -55 -5 -581 -51 -1170 -102 l-1070 -92 -27 -29 c-15 -15 -37 -28 -49 -28 -54 0 -80 74 -37 104 31 22 54 20 80 -6 l21 -21 1176 102 c741 64 1177 106 1180 113 6 19 41 48 56 48 9 0 27 -11 40 -25z" fill-rule="evenodd" /></g>
</svg>