<?xml version='1.0' encoding='utf-8'?>
<svg xmlns="http://www.w3.org/2000/svg" version="1.0" width="980.000000pt" height="980.000000pt" viewBox="0 0 980.000000 980.000000" preserveAspectRatio="xMidYMid meet">

<g transform="translate(0.000000,980.000000) scale(0.100000,-0.100000)" fill="#ffffff" stroke="none">
<path d="M 2375.0 6870.0  c11 -12 16 -29 13 -45 -5 -22 18 -45 201 -203 251 -217 542 -468 926 -801 273 -236 292 -251 322 -245 46 9 77 -25 68 -73 -6 -33 3 -47 220 -336 215 -287 228 -302 263 -307 26 -4 40 -12 49 -30 11 -23 22 -26 175 -47 90 -12 390 -54 668 -93 278 -39 602 -84 720 -101 118 -16 483 -67 810 -113 585 -82 595 -83 616 -65 40 37 104 11 104 -43 0 -24 -35 -58 -60 -58 -20 0 -54 27 -61 49 -2 6 -147 31 -359 61 -195 27 -614 86 -930 130 -316 44 -609 85 -650 91 -41 6 -214 30 -385 54 -692 97 -634 91 -655 69 -18 -19 -17 -26 84 -379 57 -198 163 -569 235 -825 163 -576 147 -527 175 -534 20 -5 46 -42 46 -66 0 -19 -40 -50 -64 -50 -49 0 -75 63 -42 99 13 14 -15 120 -224 856 -132 462 -244 850 -249 863 -6 12 -17 22 -26 22 -25 0 -49 47 -38 73 10 21 -13 55 -219 330 -204 271 -234 307 -258 307 -34 0 -57 25 -62 67 -3 27 -47 69 -359 340 -196 169 -450 389 -564 488 -523 453 -487 425 -522 419 -35 -6 -73 22 -73 54 0 54 69 82 105 42z" fill-rule="evenodd" /></g>
</svg>