<?xml version='1.0' encoding='utf-8'?>
<svg xmlns="http://www.w3.org/2000/svg" version="1.0" width="980.000000pt" height="980.000000pt" viewBox="0 0 980.000000 980.000000" preserveAspectRatio="xMidYMid meet">

<g transform="translate(0.000000,980.000000) scale(0.100000,-0.100000)" fill="#ffffff" stroke="none">
<path d="M 2359.0 6476.0  c7 -8 16 -27 19 -41 6 -21 37 -43 146 -106 98 -56 142 -77 149 -70 6 6 24 11 39 11 22 0 33 -8 46 -30 19 -34 9 -31 262 -91 654 -155 606 -145 628 -126 10 10 28 17 40 17 25 0 62 -33 62 -54 0 -10 88 -43 278 -105 514 -167 472 -155 503 -137 32 19 71 9 88 -22 9 -18 28 -19 293 -25 156 -3 708 -15 1229 -28 l945 -23 22 22 c12 12 34 22 50 22 24 1 43 23 154 177 105 146 125 180 117 195 -13 25 -3 55 26 74 35 23 79 1 83 -41 3 -41 -10 -57 -51 -64 -32 -5 -47 -22 -161 -180 -100 -140 -123 -178 -115 -192 21 -40 -27 -95 -73 -84 -19 5 -68 -34 -290 -235 -252 -226 -268 -243 -268 -275 0 -42 -34 -69 -72 -60 -20 5 -31 0 -53 -27 -24 -29 -531 -566 -801 -848 -371 -388 -399 -421 -399 -456 -1 -46 -26 -69 -76 -69 -36 0 -58 -12 -184 -105 -129 -94 -143 -108 -143 -134 1 -34 -24 -56 -63 -56 -33 0 -52 22 -52 62 0 27 -31 57 -294 292 -268 240 -296 262 -323 258 -41 -6 -73 23 -68 60 4 24 -12 41 -146 160 -559 493 -646 567 -661 562 -47 -18 -97 34 -75 77 16 29 -35 98 -72 99 -40 0 -61 26 -55 69 4 34 -10 54 -196 306 -332 448 -329 445 -356 445 -52 0 -80 62 -46 100 14 16 9 43 -52 289 -67 269 -68 272 -100 291 -26 15 -33 26 -33 49 0 16 7 37 16 45 19 20 68 21 83 2z M2348 6385 c-3 -3 26 -131 64 -284 56 -225 74 -280 88 -284 10 -2 25 -16 35 -30 13 -20 14 -30 5 -47 -10 -19 17 -59 260 -385 190 -255 275 -362 286 -358 19 7 61 -21 69 -46 3 -11 2 -29 -4 -39 -8 -15 -4 -28 20 -60 19 -26 35 -39 45 -35 27 10 64 -24 64 -61 0 -31 21 -51 317 -312 174 -153 351 -309 393 -346 67 -60 78 -67 107 -62 41 8 77 -25 70 -64 -6 -29 -32 -3 342 -336 185 -165 249 -216 264 -212 10 2 29 1 42 -4 19 -7 44 7 171 101 86 63 149 118 150 127 2 52 32 79 78 70 11 -2 223 215 637 652 541 571 619 657 614 678 -3 14 1 34 10 48 13 20 23 24 54 23 36 -3 48 7 302 235 145 131 265 244 267 251 5 19 -62 22 -1326 52 l-1142 26 -21 -22 c-31 -33 -79 -26 -99 15 -14 29 -26 35 -160 78 -80 26 -248 80 -373 121 -222 72 -229 73 -256 57 -24 -13 -34 -14 -55 -4 -15 6 -30 22 -35 35 -8 19 -23 27 -83 40 -40 9 -233 54 -428 100 l-354 85 -28 -21 c-37 -27 -74 -12 -86 35 -7 29 -24 42 -143 110 -130 75 -150 84 -161 73z" fill-rule="evenodd" /></g>
</svg>