<?xml version='1.0' encoding='utf-8'?>
<svg xmlns="http://www.w3.org/2000/svg" version="1.0" width="980.000000pt" height="980.000000pt" viewBox="0 0 980.000000 980.000000" preserveAspectRatio="xMidYMid meet">

<g transform="translate(0.000000,980.000000) scale(0.100000,-0.100000)" fill="#ffffff" stroke="none">
<path d="M 6752.0 7323.0  c10 -9 18 -26 18 -38 0 -18 32 -37 213 -124 197 -96 214 -102 243 -92 36 13 60 7 74 -20 23 -43 -3 -89 -51 -89 -29 0 -59 31 -59 61 0 11 -66 48 -211 118 -195 95 -213 102 -239 91 -16 -7 -33 -9 -39 -6 -11 7 -15 3 -273 -354 -515 -711 -488 -672 -482 -708 5 -24 1 -38 -11 -52 -18 -19 -15 -30 64 -308 113 -393 108 -379 135 -386 15 -4 28 -18 34 -35 10 -29 24 -34 378 -151 l368 -121 32 17 c30 16 34 16 57 1 33 -22 42 -52 24 -81 -14 -21 -5 -47 156 -434 143 -343 175 -412 193 -416 51 -13 69 -62 37 -98 -20 -22 -60 -23 -84 -2 -16 14 -37 11 -246 -36 -285 -64 -724 -163 -1268 -285 -231 -52 -652 -146 -935 -210 -283 -64 -579 -130 -658 -147 -133 -30 -145 -34 -158 -60 -17 -32 -53 -45 -83 -28 -18 9 -38 2 -139 -53 -64 -35 -337 -185 -607 -332 -269 -147 -547 -299 -617 -337 -101 -55 -128 -74 -128 -90 0 -54 -74 -79 -104 -36 -9 12 -16 30 -16 40 0 25 36 58 62 58 24 0 34 15 393 600 76 124 237 385 358 580 360 582 337 542 330 584 -4 27 -1 41 12 56 21 23 36 25 79 9 28 -10 48 -4 206 59 96 38 337 133 535 210 198 78 545 213 770 302 469 184 817 320 890 348 35 14 51 26 53 40 2 11 9 26 17 32 11 9 11 21 -4 73 -144 509 -175 607 -192 612 -70 23 -62 115 10 115 22 0 36 12 73 63 459 631 702 973 699 982 -24 68 40 124 91 78z M5875 5255 c-99 -39 -322 -127 -495 -195 -343 -134 -504 -197 -735 -288 -82 -33 -344 -135 -582 -228 -408 -160 -433 -171 -438 -197 -7 -29 -31 -47 -63 -47 -12 0 -28 -13 -39 -32 -11 -18 -145 -235 -298 -483 -153 -247 -355 -576 -450 -730 -95 -154 -202 -327 -238 -385 -36 -58 -64 -106 -62 -108 2 -2 333 176 737 396 613 335 734 405 736 424 8 53 66 76 104 41 20 -17 -8 -23 748 147 124 28 374 84 555 125 182 41 422 95 535 120 324 73 985 221 1211 272 l206 46 12 32 c11 31 3 54 -158 441 -162 391 -171 409 -199 416 -21 6 -33 17 -40 37 -9 25 -21 32 -89 54 -43 13 -210 68 -371 121 -270 89 -295 96 -311 82 -22 -20 -55 -20 -71 -1 -7 8 -15 15 -19 14 -3 -1 -87 -34 -186 -74z" fill-rule="evenodd" /></g>
</svg>