<?xml version='1.0' encoding='utf-8'?>
<svg xmlns="http://www.w3.org/2000/svg" version="1.0" width="980.000000pt" height="980.000000pt" viewBox="0 0 980.000000 980.000000" preserveAspectRatio="xMidYMid meet">

<g transform="translate(0.000000,980.000000) scale(0.100000,-0.100000)" fill="#ffffff" stroke="none">
<path d="M 5976.0 7314.0  c15 -22 16 -31 5 -59 -14 -39 -67 91 446 -1094 185 -427 385 -888 444 -1026 97 -225 110 -250 135 -257 33 -9 44 -24 44 -60 0 -35 -24 -58 -60 -58 -25 0 -45 -20 -150 -147 -67 -82 -147 -179 -179 -218 -255 -311 -554 -675 -697 -850 -95 -115 -289 -353 -432 -528 -246 -299 -260 -319 -255 -350 3 -24 0 -39 -12 -50 -35 -35 -105 -10 -105 38 0 29 41 66 70 63 20 -3 61 42 258 282 129 157 253 308 276 336 64 80 971 1186 1112 1356 101 123 101 121 -91 218 -83 42 -409 203 -725 360 -863 426 -1643 811 -1749 864 -65 32 -98 43 -105 36 -5 -5 -18 -10 -28 -10 -10 0 -23 -10 -28 -22 -8 -20 -1227 -3331 -1290 -3505 -20 -55 -21 -64 -7 -82 19 -28 10 -70 -19 -83 -59 -27 -113 31 -76 81 10 15 28 27 38 29 20 3 35 41 355 912 110 300 465 1263 724 1965 95 259 192 521 215 584 35 95 40 118 31 138 -18 40 -13 71 14 89 21 13 30 14 53 5 33 -14 -80 -78 957 549 358 216 667 403 687 414 26 15 38 28 38 44 0 12 9 31 20 42 28 28 66 26 86 -6z M5375 6934 c-275 -167 -645 -390 -822 -496 -274 -164 -322 -197 -323 -216 0 -24 123 -87 1575 -802 176 -87 504 -248 728 -359 224 -110 412 -201 417 -201 6 0 10 3 10 6 0 4 -63 151 -139 328 -76 176 -219 506 -316 731 -98 226 -249 577 -337 780 -88 204 -174 402 -191 442 -21 50 -36 73 -51 76 -12 2 -28 7 -36 10 -9 3 -228 -124 -515 -299z" fill-rule="evenodd" /></g>
</svg>