<?xml version='1.0' encoding='utf-8'?>
<svg xmlns="http://www.w3.org/2000/svg" version="1.0" width="980.000000pt" height="980.000000pt" viewBox="0 0 980.000000 980.000000" preserveAspectRatio="xMidYMid meet">

<g transform="translate(0.000000,980.000000) scale(0.100000,-0.100000)" fill="#ffffff" stroke="none">
<path d="M 1995.0 7255.0  c14 -13 25 -30 25 -37 0 -23 -30 -58 -50 -58 -24 0 -25 -2 -86 -151 -46 -112 -50 -128 -37 -145 8 -10 12 -29 10 -42 -3 -18 9 -34 58 -77 42 -37 68 -53 79 -49 41 16 80 -16 81 -68 0 -10 57 -57 141 -117 130 -92 144 -100 176 -94 48 7 83 -25 74 -69 -5 -28 6 -43 141 -192 81 -88 152 -166 158 -172 6 -6 25 -11 42 -11 18 0 39 -5 47 -13 30 -24 14 -89 -25 -102 -8 -3 -28 -166 -60 -463 -26 -253 -50 -479 -52 -502 -3 -33 0 -45 13 -55 32 -23 34 -55 6 -83 l-26 -26 31 -477 32 -477 28 -27 c16 -15 29 -32 29 -38 0 -17 -21 -54 -36 -63 -12 -7 -14 -98 -14 -507 0 -574 -6 -543 92 -442 43 43 56 64 56 86 -1 30 31 66 57 66 7 0 47 87 93 202 72 182 79 204 66 222 -20 29 -17 52 9 76 15 15 30 20 48 16 22 -4 40 10 128 98 90 90 101 106 99 133 -3 43 27 76 64 71 25 -4 45 13 190 170 155 168 162 176 159 213 -3 42 16 59 66 59 23 0 45 19 123 106 82 91 95 110 95 141 1 25 8 41 25 55 22 18 34 19 70 4 9 -3 80 32 174 87 132 76 161 97 167 120 13 49 28 60 77 53 42 -6 51 -1 340 171 163 97 356 211 427 253 618 366 760 452 762 458 1 4 4 20 7 35 9 37 50 53 82 32 23 -15 38 -9 336 118 245 104 314 137 316 152 7 36 34 56 69 53 29 -3 43 8 166 130 114 113 133 136 129 158 -10 52 59 84 100 47 17 -15 24 -15 96 0 42 9 101 22 130 28 28 6 52 16 52 22 0 19 32 47 55 47 33 0 58 -24 58 -56 0 -26 12 -38 97 -96 69 -48 100 -64 111 -57 35 22 89 -9 89 -53 0 -27 -27 -58 -52 -58 -10 0 -18 -2 -18 -4 0 -3 -30 -89 -66 -193 -57 -165 -64 -192 -55 -219 17 -47 13 -72 -14 -90 -20 -13 -29 -14 -57 -4 -32 12 -43 8 -261 -98 -167 -81 -227 -115 -227 -128 0 -27 -30 -54 -61 -54 -49 0 -73 45 -49 90 8 16 -11 62 -102 245 -84 166 -117 225 -131 225 -9 0 -26 5 -36 12 -16 10 -47 0 -193 -62 -95 -40 -234 -99 -308 -130 -98 -42 -136 -62 -139 -76 -7 -40 -33 -56 -78 -50 -40 5 -53 -1 -315 -157 -150 -90 -486 -289 -745 -442 -438 -260 -472 -282 -473 -307 0 -40 -40 -64 -78 -49 -26 11 -39 5 -192 -84 -91 -52 -166 -101 -166 -108 -1 -6 -2 -17 -3 -24 -2 -23 -33 -43 -66 -43 -23 0 -39 -7 -52 -24 -11 -13 -54 -61 -96 -107 -67 -73 -77 -88 -72 -111 9 -37 -33 -81 -68 -73 -20 5 -45 -17 -183 -166 -119 -128 -159 -179 -159 -198 -1 -59 -36 -94 -79 -78 -8 3 -54 -36 -119 -101 -93 -95 -105 -110 -100 -135 6 -32 -19 -67 -49 -67 -10 0 -21 -8 -25 -17 -3 -10 -39 -102 -80 -205 -71 -181 -73 -188 -58 -212 14 -22 15 -29 3 -53 -11 -23 -21 -29 -61 -33 -41 -5 -55 -14 -102 -60 -40 -39 -53 -59 -49 -73 7 -23 -19 -63 -46 -72 -13 -4 -31 0 -45 9 -31 20 -33 68 -6 95 18 18 20 43 24 515 l5 495 -24 16 c-30 19 -32 60 -3 91 l20 22 -31 477 -31 477 -26 22 c-40 35 -31 92 18 108 8 3 109 908 109 974 0 14 -9 38 -20 52 -14 17 -19 34 -15 52 5 23 -14 48 -154 202 -142 156 -163 175 -186 170 -33 -6 -65 22 -65 58 0 24 -19 41 -141 129 -124 89 -146 101 -171 96 -43 -10 -78 17 -78 59 0 28 -9 41 -60 85 -47 41 -64 50 -84 45 -75 -18 -104 81 -32 111 29 12 38 27 85 143 46 113 51 132 40 155 -15 34 -4 76 24 87 33 13 36 12 62 -15z M7513 6271 c-105 -22 -123 -28 -127 -46 -7 -26 -51 -48 -77 -40 -28 9 -292 -250 -283 -277 3 -11 1 -32 -6 -47 -10 -26 -3 -45 98 -247 105 -208 112 -220 149 -235 l38 -15 227 109 c208 101 228 113 234 139 4 21 16 34 37 43 29 12 35 25 99 210 62 179 67 200 53 215 -8 9 -15 28 -15 41 0 20 -18 37 -90 87 -82 56 -94 62 -128 56 -30 -5 -41 -2 -56 15 -11 12 -22 20 -25 20 -3 -1 -61 -13 -128 -28z" fill-rule="evenodd" /></g>
</svg>