<?xml version='1.0' encoding='utf-8'?>
<svg xmlns="http://www.w3.org/2000/svg" version="1.0" width="980.000000pt" height="980.000000pt" viewBox="0 0 980.000000 980.000000" preserveAspectRatio="xMidYMid meet">

<g transform="translate(0.000000,980.000000) scale(0.100000,-0.100000)" fill="#ffffff" stroke="none">
<path d="M 4780.0 7381.0  c21 -40 14 -61 -32 -94 -13 -9 -28 -77 -63 -284 l-47 -271 22 -30 c25 -34 -24 -25 485 -92 l299 -40 23 21 c16 16 29 20 50 15 15 -4 33 -7 38 -8 6 0 90 48 188 107 139 85 177 112 177 129 0 27 9 40 38 55 19 10 28 10 47 -3 33 -22 40 -52 20 -83 -15 -22 -22 -25 -59 -20 -38 6 -52 0 -218 -99 -165 -99 -176 -107 -183 -140 -8 -44 -42 -63 -81 -45 -14 6 -28 20 -31 31 -3 11 -9 20 -12 20 -4 0 -178 22 -386 50 l-379 50 -19 -21 c-19 -21 -37 -21 -92 -5 -24 7 -736 -274 -746 -295 -3 -8 -11 -24 -17 -36 -9 -18 10 -66 138 -339 140 -301 150 -319 180 -327 41 -10 57 -50 34 -85 -9 -13 -24 -27 -35 -29 -18 -5 -31 -39 -84 -225 -15 -53 -15 -59 1 -84 14 -21 16 -31 7 -55 -11 -28 -5 -40 94 -202 58 -94 110 -182 116 -194 6 -15 19 -23 34 -23 13 0 31 -5 41 -11 14 -8 46 5 164 66 96 50 145 80 142 89 -3 7 3 23 14 36 30 38 102 24 102 -20 0 -13 20 -22 83 -39 45 -12 504 -132 1021 -267 855 -223 940 -244 955 -229 22 19 65 19 81 0 7 -8 20 -15 29 -15 9 0 159 25 334 57 307 55 318 57 330 82 9 19 21 27 45 29 45 5 64 -13 60 -57 -2 -28 -9 -39 -32 -49 -25 -13 -31 -12 -57 7 l-30 22 -312 -56 c-172 -31 -319 -58 -328 -61 -9 -2 -21 -15 -27 -29 -22 -47 -95 -41 -108 9 -5 21 -39 32 -457 141 -249 65 -614 160 -812 212 -801 209 -769 202 -790 187 -22 -16 -71 -18 -80 -4 -4 7 -66 -20 -156 -67 -121 -63 -149 -81 -149 -99 0 -32 -34 -58 -67 -51 -25 5 -43 -10 -195 -160 -100 -100 -164 -171 -161 -180 10 -25 -7 -62 -34 -77 -24 -12 -30 -27 -60 -161 -30 -133 -32 -149 -18 -165 18 -19 19 -50 5 -82 -9 -19 -1 -50 41 -168 28 -80 56 -160 62 -178 7 -23 21 -38 44 -47 38 -16 52 -54 33 -91 -12 -21 -1 -50 128 -331 77 -170 156 -342 175 -383 28 -62 38 -76 58 -77 63 -5 65 -99 3 -117 -43 -13 -100 67 -64 89 6 3 10 12 10 20 0 11 -324 732 -343 763 -5 6 -15 12 -24 12 -43 0 -67 57 -40 94 12 16 9 32 -21 115 -18 53 -48 137 -65 186 -27 74 -36 91 -55 93 -12 2 -30 15 -39 28 -19 30 -6 68 30 85 21 9 28 30 58 162 33 145 34 152 17 169 -40 40 -10 98 51 98 33 0 49 13 198 163 133 132 162 166 157 183 -3 12 -1 31 5 42 10 18 -2 43 -85 179 -138 226 -143 233 -160 233 -9 0 -28 7 -43 16 -27 16 -38 14 -262 -40 -129 -32 -317 -77 -419 -102 -175 -42 -186 -46 -198 -73 -11 -25 -8 -34 29 -104 33 -60 47 -77 67 -79 14 -2 34 -15 44 -29 17 -22 17 -29 7 -53 -8 -17 -23 -29 -40 -33 -22 -4 -33 -18 -57 -74 -30 -67 -30 -70 -15 -98 16 -27 16 -30 0 -55 -13 -19 -26 -26 -50 -27 -29 0 -43 -14 -157 -156 -69 -85 -123 -161 -121 -167 16 -51 -22 -103 -67 -91 -21 5 -34 -3 -78 -46 -46 -45 -52 -56 -47 -81 11 -54 -61 -92 -101 -53 -19 19 -34 19 -157 -2 -81 -13 -102 -20 -111 -37 -14 -27 -28 -36 -55 -36 -51 0 -73 75 -31 104 30 21 47 20 74 -4 l21 -21 119 20 c65 12 121 26 123 32 9 29 44 51 70 46 24 -5 36 2 78 46 40 41 50 59 50 84 0 42 18 63 57 63 29 0 43 14 156 153 112 137 124 156 122 187 -3 42 15 70 45 73 17 1 29 17 53 72 29 66 30 73 17 99 -11 20 -12 34 -5 54 9 24 5 38 -32 103 -36 64 -47 77 -68 77 -46 0 -70 63 -36 96 20 20 62 21 84 1 15 -13 61 -4 439 88 390 94 424 104 432 125 5 13 22 29 37 34 25 10 31 24 69 152 36 123 40 143 27 157 -17 18 -18 61 -3 76 10 10 -36 118 -216 498 -32 66 -61 130 -66 143 -6 14 -17 22 -33 22 -30 0 -57 35 -51 64 4 17 -16 36 -107 101 -61 44 -163 119 -227 166 -129 95 -276 203 -364 268 -47 34 -61 40 -73 31 -11 -10 -21 -10 -44 0 -38 16 -48 51 -26 85 31 47 106 22 106 -35 0 -24 41 -58 376 -303 320 -235 379 -275 396 -266 14 7 27 6 49 -5 30 -15 37 -13 402 133 325 129 372 151 375 170 2 13 16 30 31 38 26 16 28 24 75 290 l47 273 -20 26 c-25 32 -26 43 -5 72 20 29 79 31 94 3z" fill-rule="evenodd" /></g>
</svg>