<?xml version='1.0' encoding='utf-8'?>
<svg xmlns="http://www.w3.org/2000/svg" version="1.0" width="980.000000pt" height="980.000000pt" viewBox="0 0 980.000000 980.000000" preserveAspectRatio="xMidYMid meet">

<g transform="translate(0.000000,980.000000) scale(0.100000,-0.100000)" fill="#ffffff" stroke="none">
<path d="M 6950.0 7730.0  c11 -11 20 -29 20 -40 0 -25 -34 -60 -57 -60 -14 0 -72 -135 -271 -636 -140 -349 -252 -637 -250 -639 1 -1 201 261 443 583 416 552 440 587 437 622 -4 45 17 70 58 70 28 0 60 -30 60 -56 0 -24 -38 -58 -65 -59 -25 0 -58 -39 -299 -360 -149 -198 -356 -472 -459 -609 -103 -137 -186 -250 -185 -252 2 -1 251 123 553 276 519 263 550 280 558 310 15 60 98 64 113 5 13 -53 -56 -101 -93 -64 -8 8 -156 -62 -560 -266 -301 -153 -552 -281 -557 -286 -15 -14 -94 1 926 -179 l168 -30 20 20 c25 25 55 25 80 0 55 -55 -24 -135 -82 -83 -10 9 -18 22 -18 30 0 7 -3 13 -6 13 -4 0 -223 39 -488 86 -579 103 -598 106 -602 101 -2 -2 180 -147 403 -323 835 -654 769 -605 798 -594 22 8 30 6 51 -15 31 -31 30 -50 -1 -81 -40 -40 -95 -13 -95 46 0 25 -127 128 -1105 893 -55 43 -75 53 -91 47 -13 -5 -33 -2 -52 7 -30 14 -38 13 -202 -42 -151 -50 -172 -60 -181 -83 -13 -33 -26 -41 -64 -43 -26 0 -48 -22 -165 -156 -122 -142 -134 -158 -131 -190 3 -41 -13 -63 -48 -63 -23 -1 -34 -15 -92 -123 -36 -67 -195 -359 -353 -650 -248 -458 -285 -530 -275 -548 15 -28 4 -66 -24 -80 -12 -6 -23 -13 -24 -14 -4 -3 -153 -861 -153 -880 0 -9 7 -23 15 -31 8 -9 15 -29 15 -45 0 -23 -7 -34 -30 -47 -33 -19 -21 23 -138 -497 l-59 -260 20 -26 c24 -33 20 -56 -15 -82 -24 -18 -30 -19 -55 -7 -15 7 -34 12 -42 11 -7 -1 -142 -54 -300 -116 -213 -85 -287 -118 -290 -132 -11 -56 -76 -71 -109 -25 l-20 27 -439 51 c-429 51 -438 51 -456 33 -44 -46 -124 0 -99 56 13 28 8 35 -183 327 -49 75 -111 171 -138 213 -38 60 -52 75 -72 75 -29 0 -65 32 -65 58 0 28 29 62 53 62 18 0 29 13 51 56 19 40 24 60 17 67 -6 6 -11 26 -11 44 0 36 20 53 67 54 24 0 52 29 183 180 144 166 155 182 155 219 0 40 23 69 55 70 25 0 60 -29 60 -50 0 -30 36 -44 62 -25 13 8 30 15 40 15 24 0 58 -35 58 -60 0 -26 -34 -60 -62 -60 -27 0 -58 27 -58 51 0 22 -44 36 -63 21 -6 -6 -26 -12 -44 -14 -27 -3 -54 -29 -188 -182 -142 -162 -156 -181 -150 -207 5 -22 1 -34 -19 -54 -14 -14 -32 -25 -40 -25 -9 0 -27 -23 -42 -51 -22 -44 -24 -55 -14 -75 7 -13 10 -36 7 -54 -6 -28 13 -62 182 -323 137 -211 194 -291 206 -289 21 4 65 -24 65 -42 0 -17 -16 -14 481 -71 l407 -47 21 21 c24 24 48 27 76 7 18 -12 52 -1 321 106 289 114 302 121 308 148 4 20 13 31 30 36 14 3 27 15 30 27 8 36 117 515 141 626 19 87 21 106 10 118 -24 23 -27 53 -11 78 9 14 23 25 31 25 18 0 16 -9 75 335 28 165 62 359 75 430 22 127 22 130 4 154 -35 44 -16 95 39 103 20 2 79 105 373 643 283 519 348 645 343 665 -4 14 -6 34 -6 45 1 28 39 56 66 49 19 -4 44 20 160 152 123 141 136 160 131 185 -5 22 -1 34 19 54 29 29 43 31 74 9 21 -14 33 -12 198 43 151 50 176 61 181 81 3 13 20 30 40 40 33 17 41 34 296 674 228 569 261 659 250 674 -44 60 35 126 87 74z" fill-rule="evenodd" /></g>
</svg>