<?xml version='1.0' encoding='utf-8'?>
<svg xmlns="http://www.w3.org/2000/svg" version="1.0" width="980.000000pt" height="980.000000pt" viewBox="0 0 980.000000 980.000000" preserveAspectRatio="xMidYMid meet">

<g transform="translate(0.000000,980.000000) scale(0.100000,-0.100000)" fill="#ffffff" stroke="none">
<path d="M 4442.0 7723.0  c24 -21 23 -58 -1 -82 -20 -20 -20 -21 9 -188 31 -180 30 -175 265 -1568 87 -514 161 -922 167 -924 10 -3 28 -21 54 -53 6 -8 354 -82 853 -182 766 -154 844 -168 853 -153 6 11 22 17 43 17 63 0 84 -71 32 -105 -30 -19 -65 -9 -82 25 -14 26 -23 29 -497 123 -266 54 -646 130 -845 170 -351 72 -363 73 -379 55 -10 -10 -22 -18 -29 -18 -7 0 -16 -40 -23 -112 -11 -107 -11 -113 8 -130 34 -32 21 -91 -23 -102 -19 -4 -26 -19 -44 -88 -20 -72 -20 -84 -8 -98 19 -21 19 -60 1 -86 -14 -19 -5 -59 87 -417 85 -335 104 -397 119 -397 28 0 53 -46 42 -78 -9 -25 19 -71 367 -594 319 -477 381 -566 398 -561 24 6 61 -29 61 -59 0 -56 -76 -79 -106 -32 -13 19 -15 32 -8 52 9 25 -21 73 -364 587 -328 492 -376 561 -402 566 -17 4 -37 12 -45 19 -19 16 -19 59 0 80 19 20 26 -18 -90 434 -98 383 -99 386 -120 386 -21 0 -48 45 -41 68 9 28 -130 152 -159 142 -48 -18 -90 33 -68 83 14 31 -92 217 -124 217 -24 0 -63 35 -63 56 0 7 5 23 10 36 12 26 73 -94 -736 1458 -82 157 -209 402 -284 545 -96 184 -141 261 -155 265 -59 15 -81 64 -46 99 25 25 58 27 83 4 19 -17 24 -63 8 -79 -9 -9 126 -275 734 -1439 101 -192 239 -457 307 -587 97 -189 127 -238 143 -238 43 0 68 -48 47 -89 -14 -26 97 -213 130 -218 32 -4 62 -41 55 -68 -4 -17 9 -34 64 -83 97 -88 113 -83 144 41 18 72 18 78 3 95 -25 27 -21 50 12 81 27 26 31 37 42 133 11 102 11 106 -10 127 -26 26 -27 51 -2 82 22 28 31 -42 -88 659 -44 261 -121 718 -171 1015 -170 1008 -168 999 -187 1012 -35 24 -43 34 -43 55 0 50 64 76 102 41z" fill-rule="evenodd" /></g>
</svg>