<?xml version='1.0' encoding='utf-8'?>
<svg xmlns="http://www.w3.org/2000/svg" version="1.0" width="980.000000pt" height="980.000000pt" viewBox="0 0 980.000000 980.000000" preserveAspectRatio="xMidYMid meet">

<g transform="translate(0.000000,980.000000) scale(0.100000,-0.100000)" fill="#ffffff" stroke="none">
<path d="M 4714.0 6754.0  c20 -20 21 -58 1 -78 -20 -20 -20 -18 24 -217 109 -480 211 -938 211 -942 0 -3 11 -8 25 -11 27 -7 41 -42 32 -78 -5 -19 152 -251 458 -675 10 -15 26 -23 44 -23 15 0 36 -9 46 -20 11 -12 26 -18 39 -15 12 2 179 23 371 46 l350 42 23 28 c26 32 65 38 91 15 14 -12 48 -2 261 73 135 48 378 133 540 190 277 97 296 105 310 134 29 58 102 52 108 -9 5 -53 -49 -83 -96 -53 -15 9 -108 -20 -492 -156 -261 -92 -504 -177 -539 -189 -52 -17 -66 -26 -73 -49 -17 -49 -64 -61 -99 -26 l-21 21 -375 -45 -374 -46 -28 -30 c-32 -34 -39 -36 -73 -21 -20 10 -71 -16 -418 -216 -217 -124 -455 -260 -527 -302 -121 -68 -133 -78 -133 -103 0 -30 -23 -49 -59 -49 -14 0 -30 -15 -47 -42 -15 -24 -97 -153 -184 -288 -333 -522 -313 -487 -301 -509 15 -27 -2 -69 -31 -80 -44 -16 -81 9 -80 55 0 32 21 54 55 58 29 3 10 -25 361 524 161 253 185 295 176 313 -6 11 -9 28 -5 38 4 14 -89 96 -441 387 -394 327 -449 369 -476 366 -38 -3 -78 22 -78 48 0 16 -62 40 -447 165 -247 81 -476 156 -510 167 -57 20 -64 20 -94 6 -50 -25 -89 -1 -89 53 0 29 13 43 49 52 25 6 71 -30 71 -57 0 -8 12 -17 28 -21 15 -3 245 -77 512 -165 430 -141 486 -158 500 -145 26 24 67 19 86 -10 9 -14 14 -34 11 -44 -4 -15 20 -40 107 -112 61 -50 261 -216 444 -368 299 -247 338 -276 370 -277 21 0 44 -4 52 -7 15 -7 71 24 826 457 234 135 242 140 248 174 5 33 -6 51 -166 276 -94 133 -203 285 -241 339 -55 78 -73 96 -88 92 -12 -4 -27 2 -44 19 -30 30 -31 45 -6 78 19 24 19 25 -83 483 -57 253 -114 507 -126 565 -21 95 -27 107 -54 125 -37 24 -43 48 -22 80 19 29 66 34 90 9z" fill-rule="evenodd" /></g>
</svg>